<svg version="1.1" xmlns="http://www.w3.org/2000/svg" viewBox="0 0 752.5674902967285 232.38125618990188" width="2257.7024708901854" height="697.1437685697056">
  <!-- svg-source:excalidraw -->
  
  <defs>
    <style class="style-fonts">
      @font-face {
        font-family: "Virgil";
        src: url("https://unpkg.com/@excalidraw/excalidraw@undefined/dist/excalidraw-assets/Virgil.woff2");
      }
      @font-face {
        font-family: "Cascadia";
        src: url("https://unpkg.com/@excalidraw/excalidraw@undefined/dist/excalidraw-assets/Cascadia.woff2");
      }
      @font-face {
        font-family: "Assistant";
        src: url("https://unpkg.com/@excalidraw/excalidraw@undefined/dist/excalidraw-assets/Assistant-Regular.woff2");
      }
    </style>
    
  </defs>
  <rect x="0" y="0" width="752.5674902967285" height="232.38125618990188" fill="#ffffff"></rect><g stroke-linecap="round" transform="translate(181.00818311298383 154.54993262285376) rotate(0 280.7796535918723 33.91566178352406)"><path d="M16.96 0 C191.48 -0.26, 369.47 0.53, 544.6 0 C552.83 -3.51, 562.36 4.08, 561.56 16.96 C561.83 27.67, 562.86 31.84, 561.56 50.87 C562.5 62.41, 554.79 71.01, 544.6 67.83 C412.67 67.36, 284.06 68.57, 16.96 67.83 C4.22 65.37, 0.7 61.36, 0 50.87 C3.04 37.51, -3.53 25.96, 0 16.96 C1.57 2.48, 8.76 -1.07, 16.96 0" stroke="none" stroke-width="0" fill="#ffec99"></path><path d="M16.96 0 C138.87 0.72, 260.26 1.01, 544.6 0 M16.96 0 C159.6 -0.86, 302.59 -0.22, 544.6 0 M544.6 0 C554.17 1.3, 563.12 5.89, 561.56 16.96 M544.6 0 C555.34 -0.56, 560.06 4.45, 561.56 16.96 M561.56 16.96 C561.89 28.26, 562.84 39.92, 561.56 50.87 M561.56 16.96 C561.05 24.91, 560.55 33.42, 561.56 50.87 M561.56 50.87 C560.22 64.14, 554.87 66.6, 544.6 67.83 M561.56 50.87 C559.94 60.97, 558.1 69.69, 544.6 67.83 M544.6 67.83 C412.74 65.93, 279.55 66.66, 16.96 67.83 M544.6 67.83 C369.1 66.79, 193.32 67.21, 16.96 67.83 M16.96 67.83 C3.95 66.48, -0.46 60.87, 0 50.87 M16.96 67.83 C3.96 69.09, 1.22 60.57, 0 50.87 M0 50.87 C0.41 38.68, 0.36 25.95, 0 16.96 M0 50.87 C1.01 38.23, 0.46 24.24, 0 16.96 M0 16.96 C-0.52 4.03, 6.01 0.86, 16.96 0 M0 16.96 C-1.09 4.19, 3.8 0.86, 16.96 0" stroke="transparent" stroke-width="2" fill="none"></path></g><g stroke-linecap="round" transform="translate(180.1128226898661 78.71096552973205) rotate(0 261.2327466619786 33.88911605580731)"><path d="M16.94 0 C171.58 0.38, 323.06 -2.22, 505.52 0 C517.62 -1.57, 521.24 7.53, 522.47 16.94 C523.44 24.82, 523.4 39.24, 522.47 50.83 C521.35 65.31, 514.94 66.25, 505.52 67.78 C358.36 66.83, 208.18 65.17, 16.94 67.78 C6.34 66.96, 3.48 63.32, 0 50.83 C-3.88 39.76, 1.02 21.54, 0 16.94 C3.11 4.58, 8.73 0.9, 16.94 0" stroke="none" stroke-width="0" fill="#ffc9c9"></path><path d="M16.94 0 C146.49 0.33, 275.44 0.07, 505.52 0 M16.94 0 C177.34 1.79, 336.85 1.68, 505.52 0 M505.52 0 C518.38 0.24, 521.98 5.17, 522.47 16.94 M505.52 0 C515.32 -1.21, 523.12 4.13, 522.47 16.94 M522.47 16.94 C524.07 24.49, 521.48 29.4, 522.47 50.83 M522.47 16.94 C521.57 26.91, 521.7 38.31, 522.47 50.83 M522.47 50.83 C521.43 60.89, 515.41 66.73, 505.52 67.78 M522.47 50.83 C524.65 63.99, 515.69 69.28, 505.52 67.78 M505.52 67.78 C397.89 67.79, 290.99 66.9, 16.94 67.78 M505.52 67.78 C380.14 67.41, 253.99 66.82, 16.94 67.78 M16.94 67.78 C5.19 66.47, -1.47 63.23, 0 50.83 M16.94 67.78 C6.87 66.17, 1.75 60.44, 0 50.83 M0 50.83 C0.08 42.05, 1.65 30.75, 0 16.94 M0 50.83 C-0.03 39.6, -0.52 28.72, 0 16.94 M0 16.94 C0.36 6.51, 4.7 -1.27, 16.94 0 M0 16.94 C-1.86 6.51, 6.41 1.6, 16.94 0" stroke="transparent" stroke-width="2" fill="none"></path></g><g stroke-linecap="round" transform="translate(182.95907797790505 11.96399823485342) rotate(0 250.7564535780317 29.285163540066364)"><path d="M14.64 0 C164.53 -4.41, 317.52 -3.55, 486.87 0 C495.41 1.88, 502.43 4.83, 501.51 14.64 C502.6 25.04, 500.54 38.15, 501.51 43.93 C499.64 52.16, 496.76 55.88, 486.87 58.57 C364.74 59.04, 244.19 59.78, 14.64 58.57 C8.36 59.76, 3.08 56.93, 0 43.93 C2.06 31.9, 3.59 25.14, 0 14.64 C3.08 5.78, 4.31 -2.22, 14.64 0" stroke="none" stroke-width="0" fill="#b2f2bb"></path><path d="M14.64 0 C154.9 -0.69, 295.94 -0.81, 486.87 0 M14.64 0 C123.48 -1.66, 233.44 -1.9, 486.87 0 M486.87 0 C496.14 -0.48, 500.21 3.83, 501.51 14.64 M486.87 0 C497.28 -1.52, 499.26 5.52, 501.51 14.64 M501.51 14.64 C500.65 22.42, 501.75 32.12, 501.51 43.93 M501.51 14.64 C500.61 23.27, 500.76 29.32, 501.51 43.93 M501.51 43.93 C500.1 52.64, 498.54 60.19, 486.87 58.57 M501.51 43.93 C500.39 55.19, 494.79 60.16, 486.87 58.57 M486.87 58.57 C357.83 59.58, 227.81 60.48, 14.64 58.57 M486.87 58.57 C360.32 59.78, 234.42 59.79, 14.64 58.57 M14.64 58.57 C3.41 59.67, 1.06 52.29, 0 43.93 M14.64 58.57 C6.63 56.88, -0.54 53.88, 0 43.93 M0 43.93 C1.67 32.97, 0.27 26.26, 0 14.64 M0 43.93 C-0.33 33.2, 0.11 24.52, 0 14.64 M0 14.64 C-0.95 3.61, 3.27 0.75, 14.64 0 M0 14.64 C0.76 6.48, 5.22 -2.05, 14.64 0" stroke="transparent" stroke-width="2" fill="none"></path></g><g stroke-linecap="round" transform="translate(11.796875 10) rotate(0 56.109375000000014 28.023452758789062)"><path d="M14.01 0 C46.38 -0.09, 75.94 3.36, 98.21 0 C108.47 -0.05, 113.91 5.65, 112.22 14.01 C111.24 23.13, 110.48 24.38, 112.22 42.04 C112.35 48.68, 106.01 58.94, 98.21 56.05 C70.15 54.19, 44.19 56.2, 14.01 56.05 C7.75 59.29, 0.09 48.05, 0 42.04 C2.89 31.01, 2.86 23.03, 0 14.01 C-0.57 2.45, 6.42 -3.35, 14.01 0" stroke="none" stroke-width="0" fill="#b2f2bb"></path><path d="M14.01 0 C42.68 -0.25, 68.86 1.23, 98.21 0 M14.01 0 C47.85 -0.43, 79.88 -0.79, 98.21 0 M98.21 0 C106.24 -1.05, 112.78 3.35, 112.22 14.01 M98.21 0 C105.3 0.64, 112.41 6.4, 112.22 14.01 M112.22 14.01 C112.08 22.81, 111.29 31.18, 112.22 42.04 M112.22 14.01 C111.52 21.17, 111.33 29.05, 112.22 42.04 M112.22 42.04 C114.12 52.99, 106.57 57.35, 98.21 56.05 M112.22 42.04 C110.37 52.97, 106.95 55.42, 98.21 56.05 M98.21 56.05 C66.57 56.89, 36 56.7, 14.01 56.05 M98.21 56.05 C66.69 54.82, 34.91 56.03, 14.01 56.05 M14.01 56.05 C5.73 54.65, 1.52 49.91, 0 42.04 M14.01 56.05 C4.13 56.24, 0.65 51.5, 0 42.04 M0 42.04 C0.05 34.37, 0.54 24.04, 0 14.01 M0 42.04 C0.25 35.69, -0.4 27.84, 0 14.01 M0 14.01 C-1.61 5.42, 5.33 1.39, 14.01 0 M0 14.01 C0.34 2.62, 5.14 1.42, 14.01 0" stroke="#1e1e1e" stroke-width="2" fill="none"></path></g><g transform="translate(40.72628021240236 25.523452758789062) rotate(0 27.17996978759765 12.5)"><text x="27.179969787597656" y="0" font-family="Virgil, Segoe UI Emoji" font-size="20px" fill="#1971c2" text-anchor="middle" style="white-space: pre;" direction="ltr" dominant-baseline="text-before-edge">Crear</text></g><g stroke-linecap="round" transform="translate(191.31640625 18.47265625) rotate(0 69.283203125 22.7421875)"><path d="M11.37 0 C46.66 -2.46, 79.55 0.84, 127.2 0 M11.37 0 C46.84 -0.24, 83.89 -0.38, 127.2 0 M127.2 0 C132.82 0.56, 138.73 5.3, 138.57 11.37 M127.2 0 C135.58 -1.24, 137.12 3.81, 138.57 11.37 M138.57 11.37 C138.03 16.19, 140.44 22.65, 138.57 34.11 M138.57 11.37 C139.36 17.6, 137.92 22.86, 138.57 34.11 M138.57 34.11 C136.96 43.08, 134.25 44.94, 127.2 45.48 M138.57 34.11 C140.07 42.45, 133.82 44.5, 127.2 45.48 M127.2 45.48 C86.95 44.36, 42.49 45.6, 11.37 45.48 M127.2 45.48 C100.56 45.42, 73.62 45.39, 11.37 45.48 M11.37 45.48 C3.32 45.65, 0.57 41.8, 0 34.11 M11.37 45.48 C4.46 47.42, -1.55 42.02, 0 34.11 M0 34.11 C-1.25 25, -1.72 17.27, 0 11.37 M0 34.11 C-0.7 26.69, 0.44 19.21, 0 11.37 M0 11.37 C0.29 2.01, 4.2 1.23, 11.37 0 M0 11.37 C1.73 1.83, 1.55 0.51, 11.37 0" stroke="#1e1e1e" stroke-width="2" fill="none"></path></g><g transform="translate(207.79966735839844 28.71484375) rotate(0 52.79994201660156 12.5)"><text x="52.79994201660156" y="0" font-family="Virgil, Segoe UI Emoji" font-size="20px" fill="#1971c2" text-anchor="middle" style="white-space: pre;" direction="ltr" dominant-baseline="text-before-edge">Click hueco</text></g><g stroke-linecap="round" transform="translate(186.4608154296875 90.203125) rotate(0 69.283203125 22.7421875)"><path d="M11.37 0 C36.3 -1.4, 60.27 -2.21, 127.2 0 M11.37 0 C39.07 1.04, 68.81 1.52, 127.2 0 M127.2 0 C135.47 -1.08, 137.31 3.81, 138.57 11.37 M127.2 0 C134.1 -0.89, 136.74 3.27, 138.57 11.37 M138.57 11.37 C137.55 15.26, 137.74 23.88, 138.57 34.11 M138.57 11.37 C137.65 20.73, 138.19 28.42, 138.57 34.11 M138.57 34.11 C139.88 42.36, 133.95 44.63, 127.2 45.48 M138.57 34.11 C139.94 40.94, 135.92 47.13, 127.2 45.48 M127.2 45.48 C101.02 43.75, 78.55 46.28, 11.37 45.48 M127.2 45.48 C100.29 44.72, 74.15 44.69, 11.37 45.48 M11.37 45.48 C4.38 47.17, -1.35 41.98, 0 34.11 M11.37 45.48 C5.59 46.37, 0.53 40.36, 0 34.11 M0 34.11 C1.04 26.93, -1.09 20.03, 0 11.37 M0 34.11 C0.07 25.55, 0.13 19.39, 0 11.37 M0 11.37 C1.5 2.08, 1.84 0.44, 11.37 0 M0 11.37 C-1 3.01, 4.99 0.59, 11.37 0" stroke="#1e1e1e" stroke-width="2" fill="none"></path></g><g transform="translate(210.06407165527344 100.4453125) rotate(0 45.67994689941406 12.5)"><text x="45.67994689941406" y="0" font-family="Virgil, Segoe UI Emoji" font-size="20px" fill="#1971c2" text-anchor="middle" style="white-space: pre;" direction="ltr" dominant-baseline="text-before-edge">Click cita</text></g><g stroke-linecap="round" transform="translate(358.97637939453125 89.6484375) rotate(0 77.44927978515625 21.392578125)"><path d="M10.7 0 C46.43 1.44, 82.94 -1.08, 144.2 0 M10.7 0 C54.8 -1.55, 97.59 -1, 144.2 0 M144.2 0 C150.75 -0.78, 153.31 3.12, 154.9 10.7 M144.2 0 C149.8 2.26, 153.71 2.14, 154.9 10.7 M154.9 10.7 C156.4 14.62, 156.09 18.91, 154.9 32.09 M154.9 10.7 C155.5 18.93, 154.43 26.07, 154.9 32.09 M154.9 32.09 C156.1 38.56, 152.33 44.22, 144.2 42.79 M154.9 32.09 C152.94 37.66, 150.8 41.28, 144.2 42.79 M144.2 42.79 C112.56 45.02, 82.24 43.02, 10.7 42.79 M144.2 42.79 C103.34 43.7, 61.22 43, 10.7 42.79 M10.7 42.79 C5.13 43.56, 0.46 38.06, 0 32.09 M10.7 42.79 C2.97 40.91, 0.41 40.21, 0 32.09 M0 32.09 C0.88 27.35, 1.53 21.58, 0 10.7 M0 32.09 C0.71 26.73, -1.02 23.29, 0 10.7 M0 10.7 C-0.87 2.88, 4.61 0.51, 10.7 0 M0 10.7 C-0.03 4.65, 4.19 -2.02, 10.7 0" stroke="#1e1e1e" stroke-width="2" fill="none"></path></g><g transform="translate(364.49573516845703 98.541015625) rotate(0 71.92992401123047 12.5)"><text x="71.92992401123047" y="0" font-family="Virgil, Segoe UI Emoji" font-size="20px" fill="#1971c2" text-anchor="middle" style="white-space: pre;" direction="ltr" dominant-baseline="text-before-edge">botón cancelar</text></g><g stroke-linecap="round" transform="translate(362.61712646484375 163.39443969726568) rotate(0 97.24029541015625 24.849639892578125)"><path d="M12.42 0 C68.66 1.83, 125.29 2.35, 182.06 0 M12.42 0 C53.85 -0.4, 95.07 -0.24, 182.06 0 M182.06 0 C189 1.97, 193.45 2.91, 194.48 12.42 M182.06 0 C188.72 -1.21, 196.67 6, 194.48 12.42 M194.48 12.42 C196.03 18.14, 194.09 26.21, 194.48 37.27 M194.48 12.42 C194.98 20.37, 194.88 29.69, 194.48 37.27 M194.48 37.27 C192.78 44.2, 189.88 48.39, 182.06 49.7 M194.48 37.27 C192.79 46.82, 191.56 48.09, 182.06 49.7 M182.06 49.7 C118.43 49.87, 54.59 49.89, 12.42 49.7 M182.06 49.7 C117.69 50.33, 51.99 49.36, 12.42 49.7 M12.42 49.7 C3.62 48.07, 0.36 46.42, 0 37.27 M12.42 49.7 C3.05 48.23, -1.86 46.41, 0 37.27 M0 37.27 C-1.96 29.4, 1.06 22.22, 0 12.42 M0 37.27 C-0.19 31.6, 0.77 26.86, 0 12.42 M0 12.42 C-0.03 5.08, 4.69 -1.76, 12.42 0 M0 12.42 C0.6 4.29, 3.43 2.03, 12.42 0" stroke="#1e1e1e" stroke-width="2" fill="none"></path></g><g transform="translate(371.47753143310547 175.7440795898438) rotate(0 88.37989044189453 12.5)"><text x="88.37989044189453" y="0" font-family="Virgil, Segoe UI Emoji" font-size="20px" fill="#1971c2" text-anchor="middle" style="white-space: pre;" direction="ltr" dominant-baseline="text-before-edge">editar fecha/hora</text></g><g stroke-linecap="round" transform="translate(186.04296875 165.70312500000006) rotate(0 69.283203125 22.7421875)"><path d="M11.37 0 C46.01 -1.66, 82.82 -0.99, 127.2 0 M11.37 0 C40.96 1.24, 71.36 -0.36, 127.2 0 M127.2 0 C133.36 -1.05, 140.47 5.41, 138.57 11.37 M127.2 0 C133.65 1.5, 136.72 5.38, 138.57 11.37 M138.57 11.37 C139.17 16.77, 137.64 25.03, 138.57 34.11 M138.57 11.37 C137.83 16.77, 138.45 22.87, 138.57 34.11 M138.57 34.11 C137.1 42.79, 135.84 44.09, 127.2 45.48 M138.57 34.11 C140.32 40.01, 134.24 45.67, 127.2 45.48 M127.2 45.48 C90.86 44.48, 51.44 47.39, 11.37 45.48 M127.2 45.48 C87.71 44, 48.92 45.24, 11.37 45.48 M11.37 45.48 C2.84 44.21, -1.61 42.44, 0 34.11 M11.37 45.48 C4.55 47.08, 0.34 39.64, 0 34.11 M0 34.11 C-1.85 24.88, 0.3 18.67, 0 11.37 M0 34.11 C-0.13 28.54, 0.15 21.14, 0 11.37 M0 11.37 C0.52 3.92, 3.17 1.76, 11.37 0 M0 11.37 C-1.2 2.82, 3.87 -1.72, 11.37 0" stroke="#1e1e1e" stroke-width="2" fill="none"></path></g><g transform="translate(209.64622497558594 175.94531250000006) rotate(0 45.67994689941406 12.5)"><text x="45.67994689941406" y="0" font-family="Virgil, Segoe UI Emoji" font-size="20px" fill="#1971c2" text-anchor="middle" style="white-space: pre;" direction="ltr" dominant-baseline="text-before-edge">Click cita</text></g><g stroke-linecap="round" transform="translate(367.47650146484375 19.1171875) rotate(0 69.283203125 22.7421875)"><path d="M11.37 0 C38.07 -1.25, 65.88 -1, 127.2 0 M11.37 0 C56.8 0.19, 104.58 1.52, 127.2 0 M127.2 0 C133.8 1.3, 136.96 5.18, 138.57 11.37 M127.2 0 C134.18 -0.63, 140.07 4.55, 138.57 11.37 M138.57 11.37 C137.81 18.25, 139.9 21.43, 138.57 34.11 M138.57 11.37 C137.78 17.2, 139.04 21.24, 138.57 34.11 M138.57 34.11 C140.09 40.23, 134.31 45.65, 127.2 45.48 M138.57 34.11 C139.22 41.82, 135.45 47.42, 127.2 45.48 M127.2 45.48 C101.02 46.85, 72.14 45.87, 11.37 45.48 M127.2 45.48 C101.4 45.34, 75.74 46.35, 11.37 45.48 M11.37 45.48 C4.45 46.87, 0.29 39.91, 0 34.11 M11.37 45.48 C4.26 46.9, 1.73 39.73, 0 34.11 M0 34.11 C-0.73 30.56, 0.46 24.88, 0 11.37 M0 34.11 C0.2 26.28, -0.37 19.21, 0 11.37 M0 11.37 C-1.04 2.94, 3.86 -1.5, 11.37 0 M0 11.37 C-0.98 5.64, 4.74 -0.91, 11.37 0" stroke="#1e1e1e" stroke-width="2" fill="none"></path></g><g transform="translate(387.83975982666016 29.359375) rotate(0 48.919944763183594 12.5)"><text x="48.919944763183594" y="0" font-family="Virgil, Segoe UI Emoji" font-size="20px" fill="#1971c2" text-anchor="middle" style="white-space: pre;" direction="ltr" dominant-baseline="text-before-edge">Formulario</text></g><g stroke-linecap="round" transform="translate(539.7263793945312 17.7421875) rotate(0 69.283203125 22.7421875)"><path d="M11.37 0 C38.88 -0.26, 61.22 -0.64, 127.2 0 M11.37 0 C39.56 -0.28, 67.92 -0.24, 127.2 0 M127.2 0 C134.25 -0.55, 139.88 4.45, 138.57 11.37 M127.2 0 C133.82 -0.99, 139.94 3.04, 138.57 11.37 M138.57 11.37 C137.38 18.87, 137.42 25.82, 138.57 34.11 M138.57 11.37 C139.45 18.71, 138.45 27.59, 138.57 34.11 M138.57 34.11 C139.13 41.8, 135.36 47.17, 127.2 45.48 M138.57 34.11 C137.02 42.02, 136.57 46.37, 127.2 45.48 M127.2 45.48 C88.15 45.54, 53.21 44.23, 11.37 45.48 M127.2 45.48 C100.16 46.61, 72.6 45.02, 11.37 45.48 M11.37 45.48 C4.2 46.72, 1.5 39.99, 0 34.11 M11.37 45.48 C1.55 45.99, -1 40.91, 0 34.11 M0 34.11 C0.88 26.65, -1.81 18.61, 0 11.37 M0 34.11 C-0.45 26.72, 0.11 19.43, 0 11.37 M0 11.37 C-0.85 5.4, 4.62 -0.79, 11.37 0 M0 11.37 C-1.57 4.23, 3.27 2.22, 11.37 0" stroke="#1e1e1e" stroke-width="2" fill="none"></path></g><g transform="translate(546.0596542358398 27.984375) rotate(0 62.949928283691406 12.5)"><text x="62.949928283691406" y="0" font-family="Virgil, Segoe UI Emoji" font-size="20px" fill="#1971c2" text-anchor="middle" style="white-space: pre;" direction="ltr" dominant-baseline="text-before-edge">POST /citas</text></g><g stroke-linecap="round" transform="translate(558.9567260742188 82.62890625) rotate(0 69.283203125 30)"><path d="M15 0 C40.92 2.67, 70.55 -0.21, 123.57 0 M15 0 C54.38 -1.03, 94.94 -0.42, 123.57 0 M123.57 0 C132.74 -0.86, 139.76 4.34, 138.57 15 M123.57 0 C134.71 1.65, 136.61 3.44, 138.57 15 M138.57 15 C139.47 24.37, 136.97 33.13, 138.57 45 M138.57 15 C138.78 21.86, 138.79 29.44, 138.57 45 M138.57 45 C137.22 55.28, 135.13 60.77, 123.57 60 M138.57 45 C139.1 53.66, 132.97 58.13, 123.57 60 M123.57 60 C87.79 57.87, 55.31 60.15, 15 60 M123.57 60 C83.66 59.65, 44.09 58.18, 15 60 M15 60 C3.05 60.44, -0.87 54.32, 0 45 M15 60 C6.2 60.59, -0.03 56.08, 0 45 M0 45 C0.39 34.56, 2.03 24.32, 0 15 M0 45 C-0.44 38.07, 0.4 29.14, 0 15 M0 15 C-1.37 5.39, 4.54 1.93, 15 0 M0 15 C0.76 6.97, 7.07 0.06, 15 0" stroke="#1e1e1e" stroke-width="2" fill="none"></path></g><g transform="translate(582.9799880981445 87.62890625) rotate(0 45.25994110107422 25)"><text x="45.25994110107422" y="0" font-family="Virgil, Segoe UI Emoji" font-size="20px" fill="#1971c2" text-anchor="middle" style="white-space: pre;" direction="ltr" dominant-baseline="text-before-edge">POST </text><text x="45.25994110107422" y="25" font-family="Virgil, Segoe UI Emoji" font-size="20px" fill="#1971c2" text-anchor="middle" style="white-space: pre;" direction="ltr" dominant-baseline="text-before-edge">/citas/:id</text></g><g stroke-linecap="round" transform="translate(596.6871948242188 159.26562500000006) rotate(0 69.283203125 30)"><path d="M15 0 C59.21 -1.07, 102.19 0.01, 123.57 0 M15 0 C44.17 -0.79, 74.77 -0.69, 123.57 0 M123.57 0 C134.56 1.43, 136.86 3.65, 138.57 15 M123.57 0 C133.03 -1.5, 136.88 6.26, 138.57 15 M138.57 15 C136.89 25.12, 138.52 36.75, 138.57 45 M138.57 15 C137.98 24.3, 139.44 33.71, 138.57 45 M138.57 45 C139.03 53.84, 133.05 58.37, 123.57 60 M138.57 45 C138.98 55.99, 132.47 58.53, 123.57 60 M123.57 60 C101.15 60.65, 74.17 60.77, 15 60 M123.57 60 C83.32 59.3, 44.58 58.73, 15 60 M15 60 C6.05 60.51, -0.03 55.94, 0 45 M15 60 C5.63 57.98, 0.6 55.15, 0 45 M0 45 C-1.11 37, -1.76 28, 0 15 M0 45 C-0.81 33.79, -0.35 23.15, 0 15 M0 15 C0.66 6.71, 6.8 0.05, 15 0 M0 15 C-2.12 6.27, 6 -2.02, 15 0" stroke="#1e1e1e" stroke-width="2" fill="none"></path></g><g transform="translate(620.7104568481445 164.26562500000006) rotate(0 45.25994110107422 25)"><text x="45.25994110107422" y="0" font-family="Virgil, Segoe UI Emoji" font-size="20px" fill="#1971c2" text-anchor="middle" style="white-space: pre;" direction="ltr" dominant-baseline="text-before-edge">POST </text><text x="45.25994110107422" y="25" font-family="Virgil, Segoe UI Emoji" font-size="20px" fill="#1971c2" text-anchor="middle" style="white-space: pre;" direction="ltr" dominant-baseline="text-before-edge">/citas/:id</text></g><g stroke-linecap="round" transform="translate(10 76.45703125) rotate(0 56.109375000000014 28.023452758789062)"><path d="M14.01 0 C34.59 -4.31, 59.43 -2.58, 98.21 0 C110.74 0.7, 111.92 4.23, 112.22 14.01 C110.48 20.85, 113.05 34.16, 112.22 42.04 C112.47 52.38, 110.96 53.58, 98.21 56.05 C78.68 55.34, 65.34 54.96, 14.01 56.05 C5.2 56.1, 2.95 48.14, 0 42.04 C2.83 37.34, -2.16 24.76, 0 14.01 C-1.34 1.75, 6.52 0.7, 14.01 0" stroke="none" stroke-width="0" fill="#ffc9c9"></path><path d="M14.01 0 C31.97 1.53, 51.69 -0.61, 98.21 0 M14.01 0 C36.15 0.99, 56.44 -0.4, 98.21 0 M98.21 0 C107.09 -1.31, 110.75 5.77, 112.22 14.01 M98.21 0 C108.77 -1.6, 113.97 2.98, 112.22 14.01 M112.22 14.01 C112.35 22.34, 113.92 28.16, 112.22 42.04 M112.22 14.01 C112.67 22.24, 112.18 30.81, 112.22 42.04 M112.22 42.04 C112.57 52.23, 106.6 54.77, 98.21 56.05 M112.22 42.04 C110.36 52.23, 108.31 57.65, 98.21 56.05 M98.21 56.05 C72.96 57.72, 43.53 54.27, 14.01 56.05 M98.21 56.05 C71.61 56.02, 43.94 56.23, 14.01 56.05 M14.01 56.05 C5.22 54.29, 0.52 51.5, 0 42.04 M14.01 56.05 C3.96 58.08, -1.2 50.4, 0 42.04 M0 42.04 C1.81 34.35, -0.58 23.65, 0 14.01 M0 42.04 C0.39 33.94, 0.96 24.16, 0 14.01 M0 14.01 C-1.85 5.77, 5.54 -1.76, 14.01 0 M0 14.01 C1.99 3.99, 6.64 0.58, 14.01 0" stroke="#1e1e1e" stroke-width="2" fill="none"></path></g><g transform="translate(24.23941802978517 91.98048400878906) rotate(0 41.86995697021484 12.5)"><text x="41.869956970214844" y="0" font-family="Virgil, Segoe UI Emoji" font-size="20px" fill="#1971c2" text-anchor="middle" style="white-space: pre;" direction="ltr" dominant-baseline="text-before-edge">Cancelar</text></g><g stroke-linecap="round" transform="translate(12.47259521484375 156.54687500000006) rotate(0 56.109375000000014 28.023452758789062)"><path d="M14.01 0 C34.1 1.48, 47.49 0.33, 98.21 0 C109.96 0.33, 112.95 2.89, 112.22 14.01 C112.58 20.73, 115.74 22.99, 112.22 42.04 C109.02 52.52, 105.72 54.3, 98.21 56.05 C73.33 55.97, 50.34 52.68, 14.01 56.05 C3.01 56.69, -2.04 54.3, 0 42.04 C-1.05 28.82, 2.13 22.14, 0 14.01 C3.53 2.43, 4.84 1.54, 14.01 0" stroke="none" stroke-width="0" fill="#ffec99"></path><path d="M14.01 0 C43.93 1.55, 74.9 1.35, 98.21 0 M14.01 0 C45.06 -0.08, 75.84 1.12, 98.21 0 M98.21 0 C108.61 -1.4, 113.74 3.2, 112.22 14.01 M98.21 0 C107.01 0.19, 112.87 4.8, 112.22 14.01 M112.22 14.01 C112.74 24.8, 113.23 32.93, 112.22 42.04 M112.22 14.01 C112.32 21.22, 111.67 26.93, 112.22 42.04 M112.22 42.04 C110.6 52.12, 108.21 57.44, 98.21 56.05 M112.22 42.04 C112.55 49.32, 108.02 57.47, 98.21 56.05 M98.21 56.05 C67.07 54.35, 34.37 56.27, 14.01 56.05 M98.21 56.05 C71.07 55.57, 43.65 56.51, 14.01 56.05 M14.01 56.05 C4.05 57.81, -1.04 50.53, 0 42.04 M14.01 56.05 C4.76 54.33, -0.98 53.22, 0 42.04 M0 42.04 C0.5 32.01, 2.04 23.56, 0 14.01 M0 42.04 C-1.18 31.78, 0.18 19.55, 0 14.01 M0 14.01 C1.73 4.08, 6.38 0.5, 14.01 0 M0 14.01 C-0.36 3.25, 5.79 -2.14, 14.01 0" stroke="#1e1e1e" stroke-width="2" fill="none"></path></g><g transform="translate(40.38199615478517 172.07032775878912) rotate(0 28.199974060058587 12.5)"><text x="28.199974060058594" y="0" font-family="Virgil, Segoe UI Emoji" font-size="20px" fill="#1971c2" text-anchor="middle" style="white-space: pre;" direction="ltr" dominant-baseline="text-before-edge">Mover</text></g><g stroke-linecap="round"><g transform="translate(335.8828125 41.32226018493475) rotate(0 12.796844482421875 0.21939762756520054)"><path d="M0.27 0.39 C4.41 0.43, 20.93 0.12, 25.12 0.07 M-0.25 0.12 C4.02 0.24, 21.9 0.51, 26.12 0.57" stroke="#1971c2" stroke-width="2" fill="none"></path></g><g transform="translate(335.8828125 41.32226018493475) rotate(0 12.796844482421875 0.21939762756520054)"><path d="M14.03 4.77 C18.84 2.68, 22.3 1.57, 26.12 0.57 M14.03 4.77 C17.05 3.53, 19.96 2.53, 26.12 0.57" stroke="#1971c2" stroke-width="2" fill="none"></path></g><g transform="translate(335.8828125 41.32226018493475) rotate(0 12.796844482421875 0.21939762756520054)"><path d="M14.16 -3.99 C18.91 -2.92, 22.32 -0.88, 26.12 0.57 M14.16 -3.99 C17.12 -3.17, 20 -2.11, 26.12 0.57" stroke="#1971c2" stroke-width="2" fill="none"></path></g></g><mask></mask><g stroke-linecap="round"><g transform="translate(512.0429077148438 41.61899619014099) rotate(0 10.84173583984375 -0.4425727526410128)"><path d="M-0.47 -0.37 C3.08 -0.65, 17.93 -1.21, 21.56 -1.24 M0.29 0.63 C3.73 0.38, 17.38 -0.38, 21.06 -0.73" stroke="#1971c2" stroke-width="2" fill="none"></path></g><g transform="translate(512.0429077148438 41.61899619014099) rotate(0 10.84173583984375 -0.4425727526410128)"><path d="M11.16 3.72 C14.24 2.08, 17.72 0.25, 21.06 -0.73 M11.16 3.72 C14.87 1.98, 18.11 0.62, 21.06 -0.73" stroke="#1971c2" stroke-width="2" fill="none"></path></g><g transform="translate(512.0429077148438 41.61899619014099) rotate(0 10.84173583984375 -0.4425727526410128)"><path d="M10.62 -3.68 C13.91 -2.73, 17.58 -1.97, 21.06 -0.73 M10.62 -3.68 C14.54 -2.8, 17.97 -1.53, 21.06 -0.73" stroke="#1971c2" stroke-width="2" fill="none"></path></g></g><mask></mask><g stroke-linecap="round"><g transform="translate(331.0272216796875 112.61325757086468) rotate(0 10.974578857421818 -0.6156800318021567)"><path d="M-0.13 -0.36 C3.54 -0.45, 17.82 -0.72, 21.55 -0.93 M0.81 0.64 C4.69 0.42, 19.03 -1.43, 22.57 -1.74" stroke="#1971c2" stroke-width="2" fill="none"></path></g><g transform="translate(331.0272216796875 112.61325757086468) rotate(0 10.974578857421818 -0.6156800318021567)"><path d="M12.72 3.13 C14.49 1.69, 17.27 1.34, 22.57 -1.74 M12.72 3.13 C14.9 2.07, 17.31 0.94, 22.57 -1.74" stroke="#1971c2" stroke-width="2" fill="none"></path></g><g transform="translate(331.0272216796875 112.61325757086468) rotate(0 10.974578857421818 -0.6156800318021567)"><path d="M11.89 -4.34 C13.82 -4.18, 16.77 -2.92, 22.57 -1.74 M11.89 -4.34 C14.3 -3.68, 16.9 -3.09, 22.57 -1.74" stroke="#1971c2" stroke-width="2" fill="none"></path></g></g><mask></mask><g stroke-linecap="round"><g transform="translate(519.8749389648438 111.25685790656695) rotate(0 16.5408935546875 0.5832422887455664)"><path d="M-0.4 0.3 C5.18 0.49, 27.72 0.71, 33.37 0.78 M0.39 -0.02 C5.94 0.26, 27.6 1.09, 33.09 1.29" stroke="#1971c2" stroke-width="2" fill="none"></path></g><g transform="translate(519.8749389648438 111.25685790656695) rotate(0 16.5408935546875 0.5832422887455664)"><path d="M17.34 6.36 C22.17 5.45, 25.5 4.24, 33.09 1.29 M17.34 6.36 C21.03 5.23, 24.61 4.4, 33.09 1.29" stroke="#1971c2" stroke-width="2" fill="none"></path></g><g transform="translate(519.8749389648438 111.25685790656695) rotate(0 16.5408935546875 0.5832422887455664)"><path d="M17.76 -4.95 C22.44 -2.73, 25.65 -0.81, 33.09 1.29 M17.76 -4.95 C21.35 -3.52, 24.83 -1.78, 33.09 1.29" stroke="#1971c2" stroke-width="2" fill="none"></path></g></g><mask></mask><g stroke-linecap="round"><g transform="translate(330.609375 188.41816033771107) rotate(0 13.003875732421875 -0.06870511004993318)"><path d="M0.29 -0.38 C4.76 -0.52, 22.16 -0.59, 26.43 -0.54 M-0.22 0.61 C4.25 0.5, 21.93 -0.04, 26.21 -0.05" stroke="#1971c2" stroke-width="2" fill="none"></path></g><g transform="translate(330.609375 188.41816033771107) rotate(0 13.003875732421875 -0.06870511004993318)"><path d="M14.08 4.63 C16.36 4.03, 19.08 2.32, 26.21 -0.05 M14.08 4.63 C17.9 3.46, 21.33 1.79, 26.21 -0.05" stroke="#1971c2" stroke-width="2" fill="none"></path></g><g transform="translate(330.609375 188.41816033771107) rotate(0 13.003875732421875 -0.06870511004993318)"><path d="M13.91 -4.26 C16.25 -2.85, 19.02 -2.54, 26.21 -0.05 M13.91 -4.26 C17.8 -2.7, 21.28 -1.62, 26.21 -0.05" stroke="#1971c2" stroke-width="2" fill="none"></path></g></g><mask></mask><g stroke-linecap="round"><g transform="translate(563.0977172851562 188.40402637719131) rotate(0 13.79473876953125 0.3563108817198213)"><path d="M0.42 -0.4 C4.95 -0.21, 22.91 0.57, 27.46 0.76 M-0.03 0.58 C4.39 0.9, 22.38 1.35, 26.96 1.48" stroke="#1971c2" stroke-width="2" fill="none"></path></g><g transform="translate(563.0977172851562 188.40402637719131) rotate(0 13.79473876953125 0.3563108817198213)"><path d="M13.87 5.85 C18 4.09, 23.19 2.91, 26.96 1.48 M13.87 5.85 C17.63 4.51, 22.13 3.26, 26.96 1.48" stroke="#1971c2" stroke-width="2" fill="none"></path></g><g transform="translate(563.0977172851562 188.40402637719131) rotate(0 13.79473876953125 0.3563108817198213)"><path d="M14.13 -3.59 C18.14 -2.01, 23.23 0.14, 26.96 1.48 M14.13 -3.59 C17.82 -2.05, 22.24 -0.41, 26.96 1.48" stroke="#1971c2" stroke-width="2" fill="none"></path></g></g><mask></mask></svg>